HIERARCHY
ROOT Pelvis
{
	OFFSET 0.000000 0.941512 0.000000
	CHANNELS 6 Xposition Yposition Zposition Zrotation Yrotation Xrotation 
	JOINT Pelvis_L_Hip
	{
		OFFSET 0.000000 0.000000 0.000000
		CHANNELS 3 Zrotation Yrotation Xrotation
		JOINT L_Hip
		{
			OFFSET 0.062321 -0.080322 -0.016990
			CHANNELS 3 Zrotation Yrotation Xrotation
			JOINT L_Knee
			{
				OFFSET 0.093051 -0.381305 -0.029784
				CHANNELS 3 Zrotation Yrotation Xrotation
				JOINT L_Ankle
				{
					OFFSET -0.010371 -0.431000 -0.033614
					CHANNELS 3 Zrotation Yrotation Xrotation
					End Site #name: L_Foot
					{
						OFFSET 0.069299 -0.038670 0.119418
					}
				}
			}
		}
	}
	JOINT Pelvis_R_Hip
	{
		OFFSET 0.000000 0.000000 0.000000
		CHANNELS 3 Zrotation Yrotation Xrotation
		JOINT R_Hip
		{
			OFFSET -0.055334 -0.094904 -0.002373
			CHANNELS 3 Zrotation Yrotation Xrotation
			JOINT R_Knee
			{
				OFFSET -0.064207 -0.384370 -0.019592
				CHANNELS 3 Zrotation Yrotation Xrotation
				JOINT R_Ankle
				{
					OFFSET 0.025418 -0.419734 -0.065953
					CHANNELS 3 Zrotation Yrotation Xrotation
					End Site #name: R_Foot
					{
						OFFSET -0.057233 -0.039888 0.132134
					}
				}
			}
		}
	}
	JOINT Pelvis_Spine1
	{
		OFFSET 0.000000 0.000000 0.000000
		CHANNELS 3 Zrotation Yrotation Xrotation
		JOINT Spine1
		{
			OFFSET -0.005562 0.124093 -0.043360
			CHANNELS 3 Zrotation Yrotation Xrotation
			JOINT Spine2
			{
				OFFSET 0.012244 0.139499 0.029894
				CHANNELS 3 Zrotation Yrotation Xrotation
				JOINT Spine3
				{
					OFFSET -0.002556 0.056561 0.009225
					CHANNELS 3 Zrotation Yrotation Xrotation
					JOINT Spine3_Neck
					{
						OFFSET 0.000000 0.000000 0.000000
						CHANNELS 3 Zrotation Yrotation Xrotation
						JOINT Neck
						{
							OFFSET -0.005205 0.217920 -0.024551
							CHANNELS 3 Zrotation Yrotation Xrotation
							End Site #name: Head
							{
								OFFSET 0.002365 0.091850 0.046637
							}
						}
					}
					JOINT Spine3_L_Collar
					{
						OFFSET 0.000000 0.000000 0.000000
						CHANNELS 3 Zrotation Yrotation Xrotation
						JOINT L_Collar
						{
							OFFSET 0.072225 0.116603 -0.009480
							CHANNELS 3 Zrotation Yrotation Xrotation
							JOINT L_Shoulder
							{
								OFFSET 0.115937 -0.058643 -0.021018
								CHANNELS 3 Zrotation Yrotation Xrotation
								JOINT L_Elbow
								{
									OFFSET 0.021994 -0.254722 -0.024492
									CHANNELS 3 Zrotation Yrotation Xrotation
									End Site #name: L_Wrist
									{
										OFFSET 0.048810 -0.240214 0.103329
									}
								}
							}
						}
					}
					JOINT Spine3_R_Collar
					{
						OFFSET 0.000000 0.000000 0.000000
						CHANNELS 3 Zrotation Yrotation Xrotation
						JOINT R_Collar
						{
							OFFSET -0.073372 0.120704 -0.024611
							CHANNELS 3 Zrotation Yrotation Xrotation
							JOINT R_Shoulder
							{
								OFFSET -0.108089 -0.054969 -0.020504
								CHANNELS 3 Zrotation Yrotation Xrotation
								JOINT R_Elbow
								{
									OFFSET -0.033684 -0.260739 0.009889
									CHANNELS 3 Zrotation Yrotation Xrotation
									End Site #name: R_Wrist
									{
										OFFSET -0.067980 -0.232763 0.118463
									}
								}
							}
						}
					}
				}
			}
		}
	}
}
MOTION
Frames: 7
Frame Time: 0.041667
0.014525 0.753310 -0.002762 2.135218 -6.568191 20.568229 0.000000 0.000000 0.000000 4.687190 10.284733 41.641511 6.306791 6.054271 -59.144915 10.994777 51.814105 100.911672 0.000000 0.000000 0.000000 -2.504365 -5.858408 46.325524 2.551988 -2.138193 -82.506192 -52.124992 -43.704226 134.607297 0.000000 0.000000 0.000000 3.539623 4.716008 -42.780856 -11.226328 -0.150573 -15.044936 15.356463 -2.433928 43.217766 0.000000 0.000000 0.000000 -21.361153 2.512391 -51.328518 0.000000 0.000000 0.000000 32.365547 0.314706 6.007173 -20.766434 3.790271 1.209389 6.690395 31.570999 165.199304 0.000000 0.000000 0.000000 -73.104075 -5.684769 28.557298 47.508243 -6.416364 9.143899 -67.366634 28.458219 136.496613 
0.011458 0.752703 -0.005685 2.176565 -6.677504 19.964863 0.000000 0.000000 0.000000 5.350113 10.169971 42.343623 5.146678 5.571290 -59.698194 12.676363 51.898027 99.240007 0.000000 0.000000 0.000000 -2.179821 -6.098476 47.038876 2.097340 -2.416338 -83.154057 -57.825332 -43.582334 135.880201 0.000000 0.000000 0.000000 3.815840 4.528445 -41.266379 -12.105634 -0.285272 -16.382569 15.581478 -2.883540 43.441102 0.000000 0.000000 0.000000 -19.661483 2.305184 -52.079357 0.000000 0.000000 0.000000 29.609710 1.287339 6.252593 -18.554126 3.005964 -0.325498 4.293276 36.210958 166.275703 0.000000 0.000000 0.000000 -73.150528 -5.706067 28.737733 48.193535 -6.304960 8.644103 -85.270666 34.732498 121.718263 
0.013413 0.751798 -0.002898 2.153882 -6.830934 20.223140 0.000000 0.000000 0.000000 5.018833 10.333315 42.186577 5.617720 5.862957 -59.988357 14.789238 52.399854 100.910191 0.000000 0.000000 0.000000 -1.898947 -6.169075 46.714397 1.493773 -2.731950 -82.931560 -53.783946 -43.776456 134.548342 0.000000 0.000000 0.000000 3.423012 4.630283 -42.193571 -11.245805 -0.141328 -15.035082 15.593411 -2.794165 42.282135 0.000000 0.000000 0.000000 -21.562844 2.779647 -50.037547 0.000000 0.000000 0.000000 29.905603 0.036084 5.236042 -17.372400 3.393249 2.229629 3.906634 36.054009 164.338129 0.000000 0.000000 0.000000 -73.867834 -5.280775 28.764499 48.403075 -7.307267 10.323707 -101.737643 34.931873 106.079084 
0.011583 0.751900 -0.003975 2.131654 -6.917823 20.223278 0.000000 0.000000 0.000000 5.176351 10.309760 42.312445 5.958525 6.137914 -60.660644 17.290987 52.874925 102.253823 0.000000 0.000000 0.000000 -1.524295 -6.367012 46.845484 0.797262 -3.151535 -83.366421 -52.821482 -43.413224 135.862266 0.000000 0.000000 0.000000 3.276078 4.559684 -41.822013 -10.516501 -0.373906 -16.809902 14.388788 -3.266792 43.732713 0.000000 0.000000 0.000000 -20.665479 2.707128 -50.318490 0.000000 0.000000 0.000000 28.934575 0.896436 5.663387 -15.452195 2.480327 -0.343703 2.627494 39.294862 166.168427 0.000000 0.000000 0.000000 -74.970739 -4.958791 28.703859 50.614216 -7.440872 9.781069 -115.812377 30.488884 91.080960 
0.011696 0.752747 -0.005298 2.226494 -7.314355 19.863433 0.000000 0.000000 0.000000 5.580630 10.294787 42.694741 5.519199 5.979157 -60.744430 15.328057 52.493999 100.939294 0.000000 0.000000 0.000000 -0.973948 -6.556116 46.789166 -0.563421 -3.904175 -83.472591 -55.356232 -42.722014 138.684252 0.000000 0.000000 0.000000 3.397838 4.519287 -41.274874 -12.182930 -0.174390 -15.690109 15.247914 -3.243875 42.153301 0.000000 0.000000 0.000000 -19.355457 2.576994 -50.524765 0.000000 0.000000 0.000000 27.095762 1.552134 5.816456 -15.154005 2.201118 -1.219942 11.860660 25.166832 168.742144 0.000000 0.000000 0.000000 -72.412411 -4.082810 26.424811 51.527112 -6.848986 8.497830 -103.349750 29.877657 98.955660 
0.012440 0.754751 -0.005849 2.168923 -7.580485 19.854598 0.000000 0.000000 0.000000 5.427736 10.453243 42.753033 6.286201 6.298425 -60.128311 12.242912 51.973637 100.309449 0.000000 0.000000 0.000000 -0.755367 -6.555278 46.426720 -1.298936 -4.253719 -82.936086 -55.758506 -42.940984 137.794533 0.000000 0.000000 0.000000 3.279607 4.496141 -41.105108 -12.083992 -0.310655 -16.791968 15.598197 -4.104832 44.089504 0.000000 0.000000 0.000000 -22.455875 2.535760 -52.538512 0.000000 0.000000 0.000000 27.814444 1.381450 5.679763 -16.803503 2.208220 -2.572315 11.363751 25.587038 167.812755 0.000000 0.000000 0.000000 -73.173014 -3.718397 25.984704 52.799024 -6.170890 6.845640 -88.039505 28.680598 110.317513 
0.011507 0.754113 -0.005513 2.150259 -7.224505 19.770615 0.000000 0.000000 0.000000 6.280632 10.067537 43.217410 5.745401 5.983692 -60.099750 12.647325 52.111949 101.225550 0.000000 0.000000 0.000000 -0.494194 -6.862846 46.989624 -1.669475 -4.587183 -83.150099 -51.853284 -42.924565 137.631986 0.000000 0.000000 0.000000 3.254968 4.433228 -40.862747 -11.398829 -0.377202 -17.100315 13.780856 -3.926812 43.897794 0.000000 0.000000 0.000000 -18.301725 2.212199 -52.943664 0.000000 0.000000 0.000000 29.597288 3.479014 7.677271 -16.497321 1.087251 -7.097388 15.868504 17.835903 169.933559 0.000000 0.000000 0.000000 -70.257798 -4.045699 25.264883 50.890616 -4.587773 4.516881 -80.221296 27.282732 116.792013 
